<mxfile host="app.diagrams.net" agent="Mozilla/5.0 (Windows NT 10.0; Win64; x64) AppleWebKit/537.36 (KHTML, like Gecko) Chrome/131.0.0.0 Safari/537.36 Edg/131.0.0.0" version="25.0.1">
  <diagram name="Page-1" id="p-Kwr7vVntJPaOGfV09l">
    <mxGraphModel dx="417" dy="1395" grid="1" gridSize="10" guides="1" tooltips="1" connect="1" arrows="1" fold="1" page="1" pageScale="1" pageWidth="827" pageHeight="1169" math="0" shadow="0">
      <root>
        <mxCell id="0" />
        <mxCell id="1" parent="0" />
        <mxCell id="uKvNmv4TW2KdQ9DCYQrV-1" value="Semantic Point Cloud&lt;br&gt;(4, 2048)" style="rounded=1;whiteSpace=wrap;html=1;" vertex="1" parent="1">
          <mxGeometry x="110" y="60" width="140" height="60" as="geometry" />
        </mxCell>
        <mxCell id="uKvNmv4TW2KdQ9DCYQrV-2" value="" style="shape=trapezoid;perimeter=trapezoidPerimeter;whiteSpace=wrap;html=1;fixedSize=1;rotation=-180;fillColor=#dae8fc;strokeColor=#6c8ebf;" vertex="1" parent="1">
          <mxGeometry x="120" y="140" width="120" height="30" as="geometry" />
        </mxCell>
        <mxCell id="uKvNmv4TW2KdQ9DCYQrV-3" value="PCN" style="shape=trapezoid;perimeter=trapezoidPerimeter;whiteSpace=wrap;html=1;fixedSize=1;rotation=0;fillColor=#dae8fc;strokeColor=#6c8ebf;" vertex="1" parent="1">
          <mxGeometry x="120" y="170" width="120" height="30" as="geometry" />
        </mxCell>
        <mxCell id="uKvNmv4TW2KdQ9DCYQrV-5" value="" style="endArrow=classic;html=1;rounded=0;exitX=0.5;exitY=1;exitDx=0;exitDy=0;entryX=0.5;entryY=1;entryDx=0;entryDy=0;" edge="1" parent="1" source="uKvNmv4TW2KdQ9DCYQrV-1" target="uKvNmv4TW2KdQ9DCYQrV-2">
          <mxGeometry width="50" height="50" relative="1" as="geometry">
            <mxPoint x="260" y="150" as="sourcePoint" />
            <mxPoint x="310" y="100" as="targetPoint" />
          </mxGeometry>
        </mxCell>
        <mxCell id="uKvNmv4TW2KdQ9DCYQrV-6" value="Front-Rear Offset Map&lt;div&gt;(1, 2048)&lt;/div&gt;" style="rounded=1;whiteSpace=wrap;html=1;" vertex="1" parent="1">
          <mxGeometry x="110" y="220" width="140" height="60" as="geometry" />
        </mxCell>
        <mxCell id="uKvNmv4TW2KdQ9DCYQrV-7" value="" style="endArrow=classic;html=1;rounded=0;exitX=0.5;exitY=1;exitDx=0;exitDy=0;" edge="1" parent="1" source="uKvNmv4TW2KdQ9DCYQrV-3" target="uKvNmv4TW2KdQ9DCYQrV-6">
          <mxGeometry width="50" height="50" relative="1" as="geometry">
            <mxPoint x="290" y="200" as="sourcePoint" />
            <mxPoint x="340" y="150" as="targetPoint" />
          </mxGeometry>
        </mxCell>
        <mxCell id="uKvNmv4TW2KdQ9DCYQrV-8" value="Depth Image&lt;div&gt;(1, H, W)&lt;/div&gt;" style="rounded=1;whiteSpace=wrap;html=1;" vertex="1" parent="1">
          <mxGeometry x="170" y="-100" width="120" height="60" as="geometry" />
        </mxCell>
        <mxCell id="uKvNmv4TW2KdQ9DCYQrV-9" value="Semantic Mask&lt;div&gt;(1, H, W)&lt;/div&gt;" style="rounded=1;whiteSpace=wrap;html=1;" vertex="1" parent="1">
          <mxGeometry x="310" y="-100" width="120" height="60" as="geometry" />
        </mxCell>
        <mxCell id="uKvNmv4TW2KdQ9DCYQrV-12" value="Generate Point Cloud&lt;div&gt;&amp;amp; FPS&lt;/div&gt;" style="rounded=0;whiteSpace=wrap;html=1;fillColor=#fff2cc;strokeColor=#d6b656;" vertex="1" parent="1">
          <mxGeometry x="240" y="-20" width="120" height="40" as="geometry" />
        </mxCell>
        <mxCell id="uKvNmv4TW2KdQ9DCYQrV-13" value="" style="endArrow=none;html=1;rounded=0;exitX=1;exitY=0.5;exitDx=0;exitDy=0;entryX=0;entryY=0.5;entryDx=0;entryDy=0;" edge="1" parent="1" source="uKvNmv4TW2KdQ9DCYQrV-8" target="uKvNmv4TW2KdQ9DCYQrV-9">
          <mxGeometry width="50" height="50" relative="1" as="geometry">
            <mxPoint x="290" y="-130" as="sourcePoint" />
            <mxPoint x="340" y="-180" as="targetPoint" />
          </mxGeometry>
        </mxCell>
        <mxCell id="uKvNmv4TW2KdQ9DCYQrV-14" value="" style="endArrow=classic;html=1;rounded=0;entryX=0.5;entryY=0;entryDx=0;entryDy=0;" edge="1" parent="1" target="uKvNmv4TW2KdQ9DCYQrV-12">
          <mxGeometry width="50" height="50" relative="1" as="geometry">
            <mxPoint x="300" y="-70" as="sourcePoint" />
            <mxPoint x="490" y="-50" as="targetPoint" />
          </mxGeometry>
        </mxCell>
        <mxCell id="uKvNmv4TW2KdQ9DCYQrV-15" value="" style="endArrow=classic;html=1;rounded=0;entryX=0.5;entryY=0;entryDx=0;entryDy=0;" edge="1" parent="1" target="uKvNmv4TW2KdQ9DCYQrV-1">
          <mxGeometry width="50" height="50" relative="1" as="geometry">
            <mxPoint x="300" y="20" as="sourcePoint" />
            <mxPoint x="340" y="30" as="targetPoint" />
            <Array as="points">
              <mxPoint x="300" y="40" />
              <mxPoint x="180" y="40" />
            </Array>
          </mxGeometry>
        </mxCell>
        <mxCell id="uKvNmv4TW2KdQ9DCYQrV-16" value="" style="endArrow=classic;html=1;rounded=0;" edge="1" parent="1">
          <mxGeometry width="50" height="50" relative="1" as="geometry">
            <mxPoint x="300" y="20" as="sourcePoint" />
            <mxPoint x="420" y="60" as="targetPoint" />
            <Array as="points">
              <mxPoint x="300" y="40" />
              <mxPoint x="420" y="40" />
            </Array>
          </mxGeometry>
        </mxCell>
        <mxCell id="uKvNmv4TW2KdQ9DCYQrV-17" value="Sampled Mask&lt;div&gt;(2, 2048)&lt;/div&gt;" style="rounded=1;whiteSpace=wrap;html=1;" vertex="1" parent="1">
          <mxGeometry x="370" y="60" width="100" height="60" as="geometry" />
        </mxCell>
        <mxCell id="uKvNmv4TW2KdQ9DCYQrV-18" value="FROM Ground Truth&lt;div&gt;(1, H, W)&lt;/div&gt;" style="rounded=1;whiteSpace=wrap;html=1;" vertex="1" parent="1">
          <mxGeometry x="490" y="60" width="120" height="60" as="geometry" />
        </mxCell>
        <mxCell id="uKvNmv4TW2KdQ9DCYQrV-20" value="" style="endArrow=classic;html=1;rounded=0;exitX=0.5;exitY=1;exitDx=0;exitDy=0;" edge="1" parent="1" source="uKvNmv4TW2KdQ9DCYQrV-17">
          <mxGeometry width="50" height="50" relative="1" as="geometry">
            <mxPoint x="430" y="190" as="sourcePoint" />
            <mxPoint x="470" y="160" as="targetPoint" />
            <Array as="points">
              <mxPoint x="420" y="140" />
              <mxPoint x="470" y="140" />
            </Array>
          </mxGeometry>
        </mxCell>
        <mxCell id="uKvNmv4TW2KdQ9DCYQrV-22" value="Image to Graph Convertor" style="rounded=0;whiteSpace=wrap;html=1;fillColor=#fff2cc;strokeColor=#d6b656;" vertex="1" parent="1">
          <mxGeometry x="420" y="160" width="120" height="40" as="geometry" />
        </mxCell>
        <mxCell id="uKvNmv4TW2KdQ9DCYQrV-23" value="" style="endArrow=classic;html=1;rounded=0;exitX=0.5;exitY=1;exitDx=0;exitDy=0;" edge="1" parent="1" source="uKvNmv4TW2KdQ9DCYQrV-18">
          <mxGeometry width="50" height="50" relative="1" as="geometry">
            <mxPoint x="590" y="190" as="sourcePoint" />
            <mxPoint x="490" y="160" as="targetPoint" />
            <Array as="points">
              <mxPoint x="550" y="140" />
              <mxPoint x="490" y="140" />
            </Array>
          </mxGeometry>
        </mxCell>
        <mxCell id="uKvNmv4TW2KdQ9DCYQrV-24" value="" style="endArrow=classic;html=1;rounded=0;exitX=0.5;exitY=1;exitDx=0;exitDy=0;" edge="1" parent="1" source="uKvNmv4TW2KdQ9DCYQrV-22">
          <mxGeometry width="50" height="50" relative="1" as="geometry">
            <mxPoint x="500" y="320" as="sourcePoint" />
            <mxPoint x="480" y="220" as="targetPoint" />
          </mxGeometry>
        </mxCell>
        <mxCell id="uKvNmv4TW2KdQ9DCYQrV-25" value="Front-Rear Offset Map GT&lt;div&gt;(1, 2048)&lt;/div&gt;" style="rounded=1;whiteSpace=wrap;html=1;" vertex="1" parent="1">
          <mxGeometry x="400" y="220" width="160" height="60" as="geometry" />
        </mxCell>
        <mxCell id="uKvNmv4TW2KdQ9DCYQrV-26" value="Smooth L1 Loss" style="rounded=0;whiteSpace=wrap;html=1;fillColor=#f8cecc;strokeColor=#b85450;" vertex="1" parent="1">
          <mxGeometry x="280" y="230" width="90" height="40" as="geometry" />
        </mxCell>
        <mxCell id="uKvNmv4TW2KdQ9DCYQrV-27" value="" style="endArrow=classic;html=1;rounded=0;exitX=0;exitY=0.5;exitDx=0;exitDy=0;entryX=1;entryY=0.5;entryDx=0;entryDy=0;" edge="1" parent="1" source="uKvNmv4TW2KdQ9DCYQrV-25" target="uKvNmv4TW2KdQ9DCYQrV-26">
          <mxGeometry width="50" height="50" relative="1" as="geometry">
            <mxPoint x="330" y="340" as="sourcePoint" />
            <mxPoint x="380" y="290" as="targetPoint" />
          </mxGeometry>
        </mxCell>
        <mxCell id="uKvNmv4TW2KdQ9DCYQrV-28" value="" style="endArrow=classic;html=1;rounded=0;exitX=1;exitY=0.5;exitDx=0;exitDy=0;entryX=0;entryY=0.5;entryDx=0;entryDy=0;" edge="1" parent="1" source="uKvNmv4TW2KdQ9DCYQrV-6" target="uKvNmv4TW2KdQ9DCYQrV-26">
          <mxGeometry width="50" height="50" relative="1" as="geometry">
            <mxPoint x="250" y="340" as="sourcePoint" />
            <mxPoint x="300" y="290" as="targetPoint" />
          </mxGeometry>
        </mxCell>
        <mxCell id="uKvNmv4TW2KdQ9DCYQrV-29" value="" style="endArrow=classic;html=1;rounded=0;exitX=0.5;exitY=1;exitDx=0;exitDy=0;" edge="1" parent="1" source="uKvNmv4TW2KdQ9DCYQrV-6">
          <mxGeometry width="50" height="50" relative="1" as="geometry">
            <mxPoint x="220" y="400" as="sourcePoint" />
            <mxPoint x="180" y="300" as="targetPoint" />
          </mxGeometry>
        </mxCell>
        <mxCell id="uKvNmv4TW2KdQ9DCYQrV-31" value="FROM to Point Cloud&lt;div&gt;Convertor&lt;/div&gt;" style="rounded=0;whiteSpace=wrap;html=1;fillColor=#fff2cc;strokeColor=#d6b656;" vertex="1" parent="1">
          <mxGeometry x="120" y="300" width="120" height="40" as="geometry" />
        </mxCell>
        <mxCell id="uKvNmv4TW2KdQ9DCYQrV-32" value="Coarse Point Cloud&lt;div&gt;(3, 2048)&lt;/div&gt;" style="rounded=1;whiteSpace=wrap;html=1;" vertex="1" parent="1">
          <mxGeometry x="110" y="360" width="140" height="60" as="geometry" />
        </mxCell>
        <mxCell id="uKvNmv4TW2KdQ9DCYQrV-33" value="" style="endArrow=classic;html=1;rounded=0;exitX=0.5;exitY=1;exitDx=0;exitDy=0;entryX=0.5;entryY=0;entryDx=0;entryDy=0;" edge="1" parent="1" source="uKvNmv4TW2KdQ9DCYQrV-31" target="uKvNmv4TW2KdQ9DCYQrV-32">
          <mxGeometry width="50" height="50" relative="1" as="geometry">
            <mxPoint x="270" y="360" as="sourcePoint" />
            <mxPoint x="320" y="310" as="targetPoint" />
          </mxGeometry>
        </mxCell>
        <mxCell id="uKvNmv4TW2KdQ9DCYQrV-34" value="FoldingNet" style="shape=trapezoid;perimeter=trapezoidPerimeter;whiteSpace=wrap;html=1;fixedSize=1;rotation=0;fillColor=#dae8fc;strokeColor=#6c8ebf;" vertex="1" parent="1">
          <mxGeometry x="120" y="440" width="120" height="30" as="geometry" />
        </mxCell>
        <mxCell id="uKvNmv4TW2KdQ9DCYQrV-35" value="" style="endArrow=classic;html=1;rounded=0;exitX=0.5;exitY=1;exitDx=0;exitDy=0;" edge="1" parent="1" source="uKvNmv4TW2KdQ9DCYQrV-32" target="uKvNmv4TW2KdQ9DCYQrV-34">
          <mxGeometry width="50" height="50" relative="1" as="geometry">
            <mxPoint x="260" y="440" as="sourcePoint" />
            <mxPoint x="310" y="390" as="targetPoint" />
          </mxGeometry>
        </mxCell>
        <mxCell id="uKvNmv4TW2KdQ9DCYQrV-36" value="" style="endArrow=classic;html=1;rounded=0;exitX=0.5;exitY=1;exitDx=0;exitDy=0;" edge="1" parent="1" source="uKvNmv4TW2KdQ9DCYQrV-34">
          <mxGeometry width="50" height="50" relative="1" as="geometry">
            <mxPoint x="210" y="550" as="sourcePoint" />
            <mxPoint x="180" y="490" as="targetPoint" />
          </mxGeometry>
        </mxCell>
        <mxCell id="uKvNmv4TW2KdQ9DCYQrV-37" value="Dense Point Cloud&lt;div&gt;(3, 8192)&lt;/div&gt;" style="rounded=1;whiteSpace=wrap;html=1;" vertex="1" parent="1">
          <mxGeometry x="110" y="490" width="140" height="60" as="geometry" />
        </mxCell>
        <mxCell id="uKvNmv4TW2KdQ9DCYQrV-42" value="Rear Point Cloud GT&lt;div&gt;(3, H*W)&lt;/div&gt;" style="rounded=1;whiteSpace=wrap;html=1;" vertex="1" parent="1">
          <mxGeometry x="490" y="350" width="120" height="60" as="geometry" />
        </mxCell>
        <mxCell id="uKvNmv4TW2KdQ9DCYQrV-44" value="Filter zero-coordinate points &amp;amp; FPS" style="rounded=0;whiteSpace=wrap;html=1;fillColor=#fff2cc;strokeColor=#d6b656;" vertex="1" parent="1">
          <mxGeometry x="490" y="430" width="120" height="40" as="geometry" />
        </mxCell>
        <mxCell id="uKvNmv4TW2KdQ9DCYQrV-45" value="" style="endArrow=classic;html=1;rounded=0;exitX=0.5;exitY=1;exitDx=0;exitDy=0;entryX=0.5;entryY=0;entryDx=0;entryDy=0;" edge="1" parent="1" source="uKvNmv4TW2KdQ9DCYQrV-42" target="uKvNmv4TW2KdQ9DCYQrV-44">
          <mxGeometry width="50" height="50" relative="1" as="geometry">
            <mxPoint x="560" y="530" as="sourcePoint" />
            <mxPoint x="610" y="480" as="targetPoint" />
          </mxGeometry>
        </mxCell>
        <mxCell id="uKvNmv4TW2KdQ9DCYQrV-46" value="Rear Point Cloud GT&lt;div&gt;(3, 8192)&lt;/div&gt;" style="rounded=1;whiteSpace=wrap;html=1;" vertex="1" parent="1">
          <mxGeometry x="480" y="490" width="140" height="60" as="geometry" />
        </mxCell>
        <mxCell id="uKvNmv4TW2KdQ9DCYQrV-47" value="" style="endArrow=classic;html=1;rounded=0;exitX=0.5;exitY=1;exitDx=0;exitDy=0;entryX=0.5;entryY=0;entryDx=0;entryDy=0;" edge="1" parent="1" source="uKvNmv4TW2KdQ9DCYQrV-44" target="uKvNmv4TW2KdQ9DCYQrV-46">
          <mxGeometry width="50" height="50" relative="1" as="geometry">
            <mxPoint x="610" y="460" as="sourcePoint" />
            <mxPoint x="660" y="410" as="targetPoint" />
          </mxGeometry>
        </mxCell>
        <mxCell id="uKvNmv4TW2KdQ9DCYQrV-48" value="CD Loss" style="rounded=0;whiteSpace=wrap;html=1;fillColor=#f8cecc;strokeColor=#b85450;" vertex="1" parent="1">
          <mxGeometry x="323.5" y="500" width="90" height="40" as="geometry" />
        </mxCell>
        <mxCell id="uKvNmv4TW2KdQ9DCYQrV-49" value="" style="endArrow=classic;html=1;rounded=0;exitX=0;exitY=0.5;exitDx=0;exitDy=0;entryX=1;entryY=0.5;entryDx=0;entryDy=0;" edge="1" parent="1" source="uKvNmv4TW2KdQ9DCYQrV-46" target="uKvNmv4TW2KdQ9DCYQrV-48">
          <mxGeometry width="50" height="50" relative="1" as="geometry">
            <mxPoint x="470" y="640" as="sourcePoint" />
            <mxPoint x="520" y="590" as="targetPoint" />
          </mxGeometry>
        </mxCell>
        <mxCell id="uKvNmv4TW2KdQ9DCYQrV-50" value="" style="endArrow=classic;html=1;rounded=0;exitX=1;exitY=0.5;exitDx=0;exitDy=0;entryX=0;entryY=0.5;entryDx=0;entryDy=0;" edge="1" parent="1" source="uKvNmv4TW2KdQ9DCYQrV-37" target="uKvNmv4TW2KdQ9DCYQrV-48">
          <mxGeometry width="50" height="50" relative="1" as="geometry">
            <mxPoint x="250" y="630" as="sourcePoint" />
            <mxPoint x="300" y="580" as="targetPoint" />
          </mxGeometry>
        </mxCell>
        <mxCell id="uKvNmv4TW2KdQ9DCYQrV-52" value="Rear Point Cloud Image&lt;div&gt;(3, H, W)&lt;/div&gt;" style="rounded=1;whiteSpace=wrap;html=1;" vertex="1" parent="1">
          <mxGeometry x="170" y="870" width="140" height="60" as="geometry" />
        </mxCell>
      </root>
    </mxGraphModel>
  </diagram>
</mxfile>
